<svg width="45" height="45" viewBox="0 0 45 45" fill="none" xmlns="http://www.w3.org/2000/svg">
<circle cx="22.5" cy="22.5" r="22.5" fill="#FF3E6C"/>
<g clip-path="url(#clip0_1_103)">
<path d="M31.3523 16.8719C30.0331 12.1389 24.3417 10.8418 20.1009 11.4318C16.116 11.9862 11.9008 14.4455 11.3231 18.8276C11.0671 20.7688 11.0707 23.0243 12.3855 24.6347C14.2101 26.8697 17.3275 28.1436 17.6224 31.2755C17.4852 31.2814 17.3834 31.3585 17.3351 31.473C15.7386 31.8822 15.5479 33.8364 16.834 35.0911C16.0538 35.8774 15.5741 36.9442 16.5544 37.8557C16.66 37.9542 16.784 38.0316 16.904 38.1138C14.8844 40.127 17.1255 41.2836 19.3282 41.7725C19.4984 43.3925 20.7837 44.4536 22.3865 44.5382C23.8863 44.6177 25.6091 43.3892 25.7642 41.8323C26.4025 41.6711 26.9769 41.4194 27.3771 40.993C28.0708 40.2538 28.3497 38.3978 27.5987 37.5269C28.6297 36.7465 28.4484 35.4501 27.4952 34.7477C28.0892 34.3578 28.3442 33.8426 27.7701 33.1812C27.2748 32.6108 26.4991 32.293 25.7156 32.1089C25.7163 32.0823 25.7239 32.0587 25.7203 32.0307C25.2492 28.5729 28.8057 25.738 30.5818 23.1544C31.9256 21.1988 31.9671 19.0774 31.3523 16.8719ZM22.5946 43.7482C21.2728 43.8601 20.3278 43.0024 19.8644 41.8781C20.4942 41.9886 21.0932 42.0471 21.5516 42.0506C22.4289 42.0579 23.6697 42.1329 24.8306 42.0016C24.3811 42.9314 23.8616 43.6414 22.5946 43.7482ZM21.5516 41.2084C19.9281 41.1945 15.613 40.8339 17.4256 38.408C18.7679 39.0248 20.605 38.9972 21.9144 38.9605C23.4875 38.9162 25.3795 38.7368 26.8543 37.9828C29.1895 41.084 23.2523 41.2226 21.5516 41.2084ZM26.682 37.1064C26.6778 37.1083 26.6745 37.1109 26.6702 37.1128C26.587 37.1592 26.513 37.2054 26.4131 37.2537C25.1332 37.8734 23.5754 38.0327 22.1781 38.1169C20.7875 38.2006 19.3402 38.139 18.0042 37.719C16.5652 37.2674 16.7123 36.3995 17.3728 35.4626C17.992 35.7617 18.7479 35.7907 19.4124 35.8352C20.9162 35.9359 22.441 35.8583 23.9417 35.7473C24.4105 35.7129 25.697 35.5213 26.7153 35.13C27.4757 36.0495 27.7029 36.5277 26.682 37.1064ZM26.8395 33.5354C27.7055 34.0297 24.8786 34.7526 24.6003 34.7821C23.1165 34.9414 21.6143 34.9827 20.1232 34.9579C19.4508 34.9469 18.7726 34.9091 18.1127 34.7757C16.5546 34.4601 16.3477 32.327 18.1751 32.2249C18.2678 32.2195 18.3382 32.1872 18.3986 32.1452C20.28 32.4519 22.2097 32.5789 24.0982 32.7708C25.0507 32.8675 26.0004 33.0565 26.8395 33.5354ZM22.0193 31.676C21.6806 31.6446 21.3421 31.6111 21.0034 31.5798C21.0046 31.5746 21.0046 31.5678 21.0057 31.5626C21.0173 31.526 21.0227 31.4895 21.0206 31.4523C21.2028 30.3475 20.7578 28.5712 20.3894 27.5409C19.9936 26.4334 19.3855 25.3934 18.828 24.3627C18.692 24.1116 18.5669 23.8135 18.4396 23.5045C19.3704 22.2637 21.0842 21.916 22.9821 21.6447C23.0486 21.6353 23.1212 21.6254 23.1976 21.615C22.1133 24.8084 21.9733 28.335 22.0193 31.676ZM24.8327 31.9498C24.7184 31.9348 24.6043 31.9204 24.4954 31.9098C23.9309 31.8527 23.3656 31.8025 22.8011 31.7497C22.9025 28.5026 23.0312 25.2221 23.965 22.0867C23.9919 21.9964 24.0756 21.769 24.1958 21.4604C25.3595 21.2403 26.6879 20.791 26.6608 19.6278C26.6521 19.2481 26.1892 19.159 25.9855 19.4449C25.6341 19.9382 25.1457 20.2503 24.596 20.4754C25.1997 19.0362 26.0567 17.1901 26.3751 17.2556C26.7737 17.3379 26.9621 16.8497 26.6434 16.6195C25.3889 15.7141 24.0494 19.5368 23.7699 20.1532C23.6735 20.3663 23.5976 20.5874 23.5106 20.8042C22.4113 21.0373 21.2103 21.1012 20.242 21.3949C19.3301 21.6716 18.6211 22.1383 18.1143 22.7438C17.9116 22.2986 17.6832 21.8828 17.386 21.6018C17.1991 21.4251 16.9381 21.52 16.8521 21.7428C16.6173 22.349 17.1185 23.05 17.385 23.5827C17.4209 23.6541 17.4612 23.7237 17.4975 23.7951C17.2646 24.427 17.187 25.1473 17.2952 25.9452C17.3285 26.1887 17.7016 26.1166 17.7089 25.8891C17.7252 25.3915 17.7994 24.9628 17.9135 24.5812C18.3514 25.3972 18.7983 26.2085 19.2026 27.0427C19.637 27.9391 19.7775 28.7438 19.9111 29.7045C19.9837 30.2256 19.9894 31.0037 20.2732 31.511C19.6325 31.4516 18.9919 31.3931 18.3519 31.3295C18.3738 28.7018 16.6723 27.3625 14.7053 25.7317C9.07354 21.0621 13.2955 13.8209 19.3108 12.4491C22.5001 11.7217 26.1828 12.3122 28.7287 14.3824C32.7187 17.6271 30.4326 22.1051 27.9348 25.1407C26.3678 27.0464 24.6384 29.346 24.8327 31.9498Z" fill="white"/>
<path d="M11.915 27.5829C11.358 28.2384 10.9189 29.003 10.4119 29.6984C9.92444 30.3666 9.16876 30.9396 8.78409 31.6651C8.67354 31.8732 8.85786 32.1896 9.11455 32.0948C9.82992 31.8308 10.2655 31.0535 10.6917 30.4581C11.2691 29.651 11.8874 28.7815 12.2879 27.8707C12.3876 27.6439 12.104 27.3606 11.915 27.5829Z" fill="white"/>
<path d="M7.31914 19.8889C6.45433 19.3249 5.16124 19.4418 4.16538 19.4444C2.84142 19.4479 1.45923 19.5847 0.172033 19.9014C-0.0907802 19.966 -0.0393961 20.3978 0.236617 20.3783C1.39559 20.2963 2.5423 20.1855 3.70599 20.18C4.88594 20.1746 6.09841 20.5668 7.25126 20.4108C7.51666 20.3747 7.50134 20.0077 7.31914 19.8889Z" fill="white"/>
<path d="M13.0094 9.83582C12.5512 9.17325 11.7311 8.79918 11.0711 8.35582C10.2287 7.79012 9.38372 7.19354 8.48403 6.72284C8.24691 6.59885 7.96123 6.92319 8.18562 7.10963C8.9017 7.70503 9.69391 8.21062 10.4545 8.74709C11.1633 9.2475 11.8544 9.99186 12.6829 10.2603C12.9158 10.336 13.1539 10.0444 13.0094 9.83582Z" fill="white"/>
<path d="M21.3463 0.761804C21.2898 0.451614 20.9595 0.373123 20.7281 0.553439C20.3432 0.853494 20.4601 1.53728 20.4591 1.9566C20.4561 3.6148 20.4115 5.35573 20.6486 7.00003C20.6821 7.2322 21.0847 7.23338 21.1168 7.00003C21.2678 5.89974 21.1853 4.75185 21.2007 3.64379C21.2094 3.01422 21.2214 2.3837 21.2601 1.75531C21.2733 1.54223 21.3324 1.32279 21.3345 1.11112C21.3355 1.02014 21.3334 0.964748 21.3296 0.926799C21.3475 0.873765 21.3565 0.817195 21.3463 0.761804Z" fill="white"/>
<path d="M34.4893 3.65202C33.8572 2.93877 32.9787 4.42491 32.7079 4.81571C32.2973 5.40851 31.9166 6.02206 31.5178 6.62287C31.2163 7.07755 30.6285 7.60012 30.4821 8.12032C30.4416 8.26434 30.5033 8.46587 30.6494 8.53139C30.6603 8.53634 30.6711 8.54129 30.682 8.54601C30.8312 8.61295 30.9969 8.61436 31.1194 8.48967C31.2448 8.36192 31.3071 8.2073 31.4813 8.13258C31.6147 8.07506 31.6067 7.9499 31.5407 7.85609C31.6672 7.72433 31.7969 7.5954 31.8784 7.48533C32.1888 7.06647 32.4781 6.63136 32.771 6.20025C33.0555 5.78164 33.3412 5.36373 33.6425 4.95666C33.7667 4.7886 33.9013 4.62926 34.0422 4.47511C34.1193 4.3912 34.4123 4.21819 34.2518 4.22456C34.553 4.21253 34.685 3.87264 34.4893 3.65202Z" fill="white"/>
<path d="M44.5753 17.6651C42.7047 17.7282 40.8365 17.774 38.9683 17.8913C38.3347 17.9312 36.4111 17.7761 36.0834 18.5575C36.0014 18.7531 36.2963 18.9028 36.4295 18.759C36.4686 18.7168 37.5736 18.7345 37.7009 18.7262C38.4801 18.6762 39.2608 18.6463 40.041 18.619C41.5481 18.5664 43.0677 18.5032 44.5755 18.5445C45.153 18.5603 45.1299 17.6033 44.5753 17.6651Z" fill="white"/>
<path d="M37.0192 28.538C36.7792 28.2311 36.2965 28.1114 35.9595 27.9388C35.4227 27.664 34.8978 27.3651 34.372 27.0705C33.8115 26.7575 32.6885 25.8474 32.0088 26.0692C31.882 26.1107 31.8598 26.246 31.9364 26.344C32.425 26.9672 33.539 27.3844 34.2155 27.8009C34.8669 28.2016 36.057 29.2531 36.8768 29.0778C37.1392 29.0214 37.1564 28.7131 37.0192 28.538Z" fill="white"/>
</g>
<defs>
<clipPath id="clip0_1_103">
<rect width="45" height="45" fill="white"/>
</clipPath>
</defs>
</svg>
