<svg width="54" height="47" viewBox="0 0 54 47" fill="none" xmlns="http://www.w3.org/2000/svg">
<path d="M48.9021 0H5.09805C2.28688 0 0 2.16131 0 4.8179V32.3042C0 34.9614 2.28688 37.1232 5.09795 37.1232H19.5464C19.4163 39.7808 18.9131 42.3568 18.046 44.805H14.5161C13.8749 44.805 13.3548 45.2964 13.3548 45.9025C13.3548 46.5086 13.8749 47 14.5161 47H39.4839C40.1251 47 40.6452 46.5086 40.6452 45.9025C40.6452 45.2964 40.1251 44.805 39.4839 44.805H35.9541C35.0869 42.3566 34.5837 39.7806 34.4536 37.1232H48.9019C51.7131 37.1232 54 34.9614 54 32.3042V4.8179C54.0001 2.16131 51.7132 0 48.9021 0ZM2.32253 4.8179C2.32253 3.37165 3.5677 2.1949 5.09795 2.1949H48.9019C50.4324 2.1949 51.6775 3.37155 51.6775 4.8179V29.882H2.32253V4.8179ZM20.4866 44.8051C21.2874 42.3429 21.7519 39.7689 21.8725 37.1233H32.1276C32.2483 39.7686 32.7128 42.3426 33.5135 44.8051H20.4866ZM51.6777 32.3043H51.6776C51.6776 33.7512 50.4324 34.9284 48.9021 34.9284H5.09805C3.5677 34.9284 2.32264 33.7512 2.32264 32.3043V32.0771H51.6777V32.3043Z" fill="white"/>
<path d="M42.4849 25.4925H17.4799C16.8386 25.4925 16.3185 25.9839 16.3185 26.59C16.3185 27.1961 16.8386 27.6875 17.4799 27.6875H42.485C43.1262 27.6875 43.6463 27.1961 43.6463 26.59C43.6462 25.9838 43.1262 25.4925 42.4849 25.4925Z" fill="white"/>
<path d="M11.7023 25.4925H11.5153C10.8741 25.4925 10.354 25.9839 10.354 26.59C10.354 27.1961 10.8741 27.6875 11.5153 27.6875H11.7022C12.3435 27.6875 12.8635 27.1961 12.8635 26.59C12.8635 25.9838 12.3437 25.4925 11.7023 25.4925Z" fill="white"/>
<path d="M33.852 9.07903L40.6978 14.6102L33.852 20.1414C33.3645 20.5353 33.3073 21.228 33.724 21.6887C33.9537 21.9425 34.2793 22.073 34.6072 22.073C34.8741 22.073 35.1424 21.9864 35.3612 21.8098L43.2395 15.4445C43.4977 15.2359 43.6462 14.9311 43.6462 14.6103C43.6462 14.2894 43.4978 13.9846 43.2396 13.7761L35.3612 7.4107C34.8739 7.01679 34.1407 7.07101 33.7239 7.5318C33.3071 7.99239 33.3643 8.68512 33.852 9.07903Z" fill="white"/>
<path d="M10.7608 15.4444L18.639 21.8098C18.8578 21.9866 19.1261 22.073 19.393 22.073C19.7207 22.073 20.0466 21.9426 20.2762 21.6887C20.693 21.228 20.6358 20.5353 20.1482 20.1413L13.3025 14.6102L20.1482 9.07902C20.6356 8.68511 20.6929 7.99238 20.2762 7.53169C19.8595 7.071 19.1264 7.01678 18.6389 7.41059L10.7607 13.7759C10.5025 13.9844 10.354 14.2892 10.354 14.6101C10.354 14.9309 10.5026 15.2359 10.7608 15.4444Z" fill="white"/>
<path d="M23.6793 24.2511C23.7987 24.2879 23.9199 24.3053 24.0391 24.3053C24.5283 24.3053 24.9834 24.0108 25.1431 23.5473L31.0657 6.3528C31.2643 5.77649 30.9308 5.15712 30.321 4.96954C29.711 4.78185 29.0558 5.09702 28.8573 5.67343L22.9347 22.8681C22.736 23.4442 23.0695 24.0635 23.6793 24.2511Z" fill="white"/>
</svg>
